<svg width="29" height="30" viewBox="0 0 29 30" fill="none" xmlns="http://www.w3.org/2000/svg">
<path fill-rule="evenodd" clip-rule="evenodd" d="M9.40033 0H20.0527C24.9545 0 28.9296 4.19812 28.9296 9.375V20.625C28.9296 25.8019 24.9545 30 20.0527 30H9.40033C4.49848 30 0.523376 25.8019 0.523376 20.625V9.375C0.523376 4.19812 4.49848 0 9.40033 0ZM20.0526 27.1875C23.4791 27.1875 26.2664 24.2437 26.2664 20.625V9.375C26.2664 5.75625 23.4791 2.8125 20.0526 2.8125H9.40021C5.9737 2.8125 3.18634 5.75625 3.18634 9.375V20.625C3.18634 24.2437 5.9737 27.1875 9.40021 27.1875H20.0526Z" fill="white"/>
<path fill-rule="evenodd" clip-rule="evenodd" d="M7.62506 15C7.62506 10.8581 10.8048 7.5 14.7266 7.5C18.6484 7.5 21.8281 10.8581 21.8281 15C21.8281 19.1419 18.6484 22.5 14.7266 22.5C10.8048 22.5 7.62506 19.1419 7.62506 15ZM10.2879 15C10.2879 17.5837 12.2799 19.6875 14.7264 19.6875C17.1729 19.6875 19.1649 17.5837 19.1649 15C19.1649 12.4144 17.1729 10.3125 14.7264 10.3125C12.2799 10.3125 10.2879 12.4144 10.2879 15Z" fill="white"/>
<ellipse cx="22.3606" cy="6.93736" rx="0.94635" ry="0.999375" fill="white"/>
</svg>
