<svg width="29" height="26" viewBox="0 0 29 26" fill="none" xmlns="http://www.w3.org/2000/svg">
<path d="M28.8754 3.61292C27.8191 4.10229 26.6935 4.42667 25.5199 4.58417C26.7272 3.82292 27.6486 2.62667 28.0818 1.18479C26.9562 1.89354 25.7135 2.39417 24.389 2.67354C23.3202 1.47167 21.7969 0.727295 20.1352 0.727295C16.9111 0.727295 14.3154 3.49104 14.3154 6.87917C14.3154 7.36667 14.3545 7.83542 14.4504 8.28167C9.60889 8.03229 5.32487 5.58167 2.44696 1.84854C1.94453 2.76917 1.64981 3.82292 1.64981 4.95729C1.64981 7.08729 2.68842 8.97542 4.23656 10.0685C3.30093 10.0498 2.38305 9.76292 1.60543 9.31104C1.60543 9.32979 1.60543 9.35417 1.60543 9.37854C1.60543 12.3673 3.62405 14.8498 6.27115 15.4217C5.79712 15.5585 5.28049 15.6242 4.74432 15.6242C4.37149 15.6242 3.9951 15.6017 3.6418 15.5192C4.39634 17.9548 6.53746 19.7454 9.08337 19.8035C7.10204 21.4404 4.58631 22.4267 1.86286 22.4267C1.38528 22.4267 0.927228 22.4042 0.469177 22.3423C3.04882 24.0992 6.10604 25.1023 9.40294 25.1023C20.1192 25.1023 25.978 15.7273 25.978 7.60104C25.978 7.32917 25.9691 7.06667 25.9567 6.80604C27.1125 5.93979 28.0836 4.85792 28.8754 3.61292Z" fill="white"/>
</svg>
